<svg xmlns="http://www.w3.org/2000/svg" viewBox="0 0 119.87 26.46"><defs><style>.cls-1{fill:#fff;}.cls-2{fill:#146673;}</style></defs><g id="Layer_2" data-name="Layer 2"><g id="Layer_1-2" data-name="Layer 1"><rect class="cls-1" width="119.87" height="26.46" rx="1.58"/><path class="cls-2" d="M22.21,17.61V7.43h2.18V15.7h4.3v1.91Z"/><path class="cls-2" d="M29.47,13.91a3.77,3.77,0,0,1,3.82-3.86c2.21,0,3.69,1.65,3.69,4v.45H31.5a2,2,0,0,0,2.12,1.65,3.14,3.14,0,0,0,2-.71l.87,1.28a4.63,4.63,0,0,1-3,1A3.74,3.74,0,0,1,29.47,13.91Zm3.82-2.27a1.69,1.69,0,0,0-1.8,1.57h3.63A1.69,1.69,0,0,0,33.29,11.64Z"/><path class="cls-2" d="M42.81,17.61v-.78a3,3,0,0,1-2.33,1,2.44,2.44,0,0,1-2.55-2.44A2.34,2.34,0,0,1,40.48,13a3,3,0,0,1,2.33.9v-.93c0-.75-.64-1.24-1.62-1.24a3.11,3.11,0,0,0-2.12.87l-.76-1.36a4.75,4.75,0,0,1,3.22-1.16c1.69,0,3.23.67,3.23,2.8v4.76Zm0-1.77v-.92a1.94,1.94,0,0,0-1.56-.66c-.76,0-1.39.42-1.39,1.12s.63,1.1,1.39,1.1A2,2,0,0,0,42.81,15.84Z"/><path class="cls-2" d="M46.67,17.61V10.24h1.94v1A3.23,3.23,0,0,1,51,10.05V12a2.5,2.5,0,0,0-.53,0,2.47,2.47,0,0,0-1.82.84v4.87Z"/><path class="cls-2" d="M57.14,17.61V13.15a1.19,1.19,0,0,0-1.36-1.37,2.19,2.19,0,0,0-1.68.85v5H52.17V10.24H54.1v.94a3.46,3.46,0,0,1,2.58-1.13,2.15,2.15,0,0,1,2.41,2.35v5.21Z"/><path class="cls-2" d="M74.07,17.61V13c0-.68-.31-1.17-1.1-1.17a2,2,0,0,0-1.53.85v5h-2V13c0-.68-.31-1.17-1.1-1.17a2,2,0,0,0-1.53.85v5H64.92V10.24h1.94v.94a3.32,3.32,0,0,1,2.41-1.13,2,2,0,0,1,2,1.33,3.15,3.15,0,0,1,2.53-1.33A2,2,0,0,1,76,12.28v5.33Z"/><path class="cls-2" d="M77.47,13.91a3.9,3.9,0,0,1,7.8,0,3.9,3.9,0,0,1-7.8,0Zm5.78,0a1.9,1.9,0,1,0-3.77,0,1.9,1.9,0,1,0,3.77,0Z"/><path class="cls-2" d="M86.72,17.61V10.24h1.94v1A3.23,3.23,0,0,1,91,10.05V12a2.54,2.54,0,0,0-.54,0,2.47,2.47,0,0,0-1.81.84v4.87Z"/><path class="cls-2" d="M91.74,13.91a3.76,3.76,0,0,1,3.81-3.86c2.22,0,3.7,1.65,3.7,4v.45H93.77a2,2,0,0,0,2.12,1.65,3.1,3.1,0,0,0,2-.71l.87,1.28a4.59,4.59,0,0,1-3,1A3.73,3.73,0,0,1,91.74,13.91Zm3.81-2.27a1.71,1.71,0,0,0-1.8,1.57h3.64A1.7,1.7,0,0,0,95.55,11.64Z"/></g></g></svg>