<svg xmlns="http://www.w3.org/2000/svg" viewBox="0 0 150.44 42.21"><defs><style>.cls-1{fill:#fff;}</style></defs><g id="Layer_2" data-name="Layer 2"><g id="Layer_1-2" data-name="Layer 1"><path class="cls-1" d="M58.91,27.33l8.4-21.61s2.17.08,3.23.08,2.32-.08,3.47-.08v1a4.81,4.81,0,0,0-2.76.47c-.51.39-.75,1.06-.75,2.37,0,6.22.11,12.84.27,18.79.07,3,.35,3.83,4.29,3.83v1c-2.17,0-4.33-.08-6.5-.08-1.93,0-3.83,0-5.76.08v-1a7,7,0,0,0,3-.36c.71-.4,1-1.14,1-2.68l0-18.8h-.07L59.45,29.68l-1.54,3.91h-.78L48.24,11.24h-.08L48,25.51c0,.51,0,1.93,0,2.48,0,1.93.2,3,.83,3.54s1.61.68,3.19.68v1c-1.61,0-3.27-.08-4.89-.08s-3.5,0-5.23.08v-1c2.79,0,4.53-.68,4.68-6s.31-10.75.31-16.15c0-1.38-.19-2.25-.74-2.72a4.09,4.09,0,0,0-2.72-.63v-1c1.37,0,2.79.08,4.17.08.83,0,2.9-.08,2.9-.08l8.48,21.61"/><path class="cls-1" d="M77.93,22.35a11.23,11.23,0,0,0,0,2.29c.24,3.74,2.65,6.81,5.8,6.81a7.57,7.57,0,0,0,5.32-2.63l.55.55c-1.81,2.4-4.06,4.45-7.29,4.45-6.26,0-7.53-6.07-7.53-8.59,0-7.72,5.2-10,8-10,3.2,0,6.63,2,6.66,6.19a5.7,5.7,0,0,1,0,.71l-.36.23H77.93m7-1.26c1,0,1.1-.51,1.1-1a3.33,3.33,0,0,0-3.42-3.62c-2.41,0-4.06,1.77-4.53,4.61Z"/><path class="cls-1" d="M108,29.84c0,1.61.39,1.61,1.93,1.61h.67v.79h0c-.59.12-1.66.44-2.8.79s-2.25.79-2.48.79c-.4,0-.44-.59-.44-1.07V30.94h-.07a8.9,8.9,0,0,1-6,2.88c-4.73,0-7.33-4.14-7.33-8.55a10,10,0,0,1,9.73-10,9.86,9.86,0,0,1,3.7.71V11.27c0-2.56-.59-2.64-2.08-3.07V7.56a24.65,24.65,0,0,0,4-1.69,4.45,4.45,0,0,1,.87-.43c.24,0,.32.24.32.55V29.84m-3.16-9.74c0-2.91-2.44-3.62-4.17-3.62-2.8,0-5.87,2.09-5.87,7.41,0,4.34,2.64,7.56,6.22,7.56,1.18,0,3.82-.86,3.82-2.32Z"/><path class="cls-1" d="M117.1,34.73c0,4.84-2.45,5.91-6.19,7.48l-.28-.9c3.27-1.58,3.32-3.15,3.32-6.19V20.23c0-1.74-.6-2-2.61-2.77v-.62a23,23,0,0,0,4.77-1.42,1.38,1.38,0,0,1,.71-.2c.2,0,.28.24.28.55v19"/><path class="cls-1" d="M115.52,11.64a2,2,0,0,1-1.93-2,2,2,0,0,1,1.93-1.89,1.92,1.92,0,0,1,1.93,1.89,2,2,0,0,1-1.93,2"/><path class="cls-1" d="M123.52,22.35a9.84,9.84,0,0,0,0,2.29c.24,3.74,2.64,6.81,5.79,6.81a7.56,7.56,0,0,0,5.32-2.63l.55.55c-1.81,2.4-4.05,4.45-7.29,4.45-6.26,0-7.52-6.07-7.52-8.59,0-7.72,5.2-10,8-10,3.19,0,6.62,2,6.66,6.19a4.29,4.29,0,0,1,0,.71l-.35.23H123.52m7-1.26c1,0,1.11-.51,1.11-1a3.34,3.34,0,0,0-3.43-3.62c-2.4,0-4.06,1.77-4.53,4.61Z"/><path class="cls-1" d="M141.48,28.38c0,2.6,1.43,3.31,2.49,3.31a3.92,3.92,0,0,0,2.76-1.14l.58.59a7.47,7.47,0,0,1-5.23,2.68c-2.52,0-3.75-1.34-3.75-3.67V17.94h-2.6v-.63c2.92-.85,3.81-2.13,5-5.52h.72v4.27h4.38v1.88h-4.38V28.38"/><path class="cls-1" d="M19,12.1l1.32-.43a22.61,22.61,0,0,0-1.95-3.16h-.69a11.7,11.7,0,0,0-5.45,1.62A40.36,40.36,0,0,0,13,14.38C14.74,13.63,16.67,12.87,19,12.1Z"/><path class="cls-1" d="M12.33,7.68c-.08,0-.34.28-.22,1.74a14.54,14.54,0,0,1,1.25-.78l0,0C13,8,12.53,7.58,12.33,7.68Z"/><path class="cls-1" d="M23.07,18.62a44.72,44.72,0,0,0-2.3-5.93c-1.2.34-2.44.72-3.71,1.15s-2.59.92-3.8,1.41c.44,1.67,1,3.71,1.81,6.2C17.65,20.52,20.41,19.55,23.07,18.62Z"/><path class="cls-1" d="M15.09,6.39c-.48.22-.76.86-.95,1.86a13.76,13.76,0,0,1,3.07-1,5.1,5.1,0,0,0-.64-.54A1.52,1.52,0,0,0,15.09,6.39Z"/><path class="cls-1" d="M30.87,20.17a12.76,12.76,0,0,0-.5-2.87c-1.15.42-2.45.88-3.93,1.39l-1.2.4c.44,1.39.82,2.82,1.13,4.25q.28,1.36.48,2.61c1.32-.57,2.54-1.16,3.62-1.75A12.27,12.27,0,0,0,30.87,20.17Z"/><path class="cls-1" d="M29.74,26.21c-.85.38-1.76.76-2.71,1.12a22.45,22.45,0,0,1,.18,2.48A12.6,12.6,0,0,0,29.74,26.21Z"/><path class="cls-1" d="M25.06,28A50.9,50.9,0,0,1,18,29.85a35.91,35.91,0,0,0,1.6,3.53,12.3,12.3,0,0,0,5.62-1.94A21.89,21.89,0,0,0,25.06,28Z"/><path class="cls-1" d="M24.27,34.36A2.46,2.46,0,0,0,25,33a13.8,13.8,0,0,1-2.81.82,4,4,0,0,0,.44.39C23.3,34.63,23.85,34.68,24.27,34.36Z"/><path class="cls-1" d="M19.92,34c.56.93,1,1.37,1.25,1.35s.31-.4.36-.7a2.81,2.81,0,0,0-.05-.76l-.8.08Z"/><path class="cls-1" d="M15.88,29.36c-.31-.72-.64-1.51-.94-2.32-.54-1.43-1-2.79-1.43-4.09-4.81,1.54-8.83,2.76-9.73,2.9-.12,0-.14,0-.15,0s0,0,.12-.11c.84-.44,4.69-1.88,9.49-3.61-.71-2.28-1.25-4.34-1.64-6.17a60,60,0,0,0-7,3.51c-.18.11-.26,0-.11-.15a46.46,46.46,0,0,1,6.9-4.16c-.3-1.54-.5-2.89-.62-4.07a12.69,12.69,0,0,0-2,1.92.1.1,0,0,1-.14,0,.07.07,0,0,1,0-.07.07.07,0,0,1,0-.06h0a13.86,13.86,0,0,1,2.07-2.37c0-.4,0-.77-.07-1.13H1.54L0,30H9.55A32.83,32.83,0,0,0,15.88,29.36Z"/><path class="cls-1" d="M35.54,9.36l.19.09a1.07,1.07,0,0,1,.61.61c.34,1-1.31,2.58-4.47,4.36.17.33.32.67.46,1,4.1-1.37,5.54-1.74,5.61-1.51s-1.26,1-5.25,2.53A11.56,11.56,0,0,1,33,17.63c3.57-.3,5.78.15,6.14,1.29A1.5,1.5,0,0,1,39,20.06c-.49.94-2.77,2.82-6.36,4.74a13.6,13.6,0,0,1-5.47,7.05,5.26,5.26,0,0,1-1.27,3.44,1.94,1.94,0,0,1-2.28.11,6.55,6.55,0,0,1-1.72-1.33v.08a10.55,10.55,0,0,1,0,2q-.11.93-.6,1c-.63.08-1.79-1.05-3.12-3.18a12.86,12.86,0,0,1-2.84-.66h0a.11.11,0,0,1-.07-.08s0,0,0,0a.1.1,0,0,1,.12-.07,13.12,13.12,0,0,0,2.49.36,36.72,36.72,0,0,1-1.69-3.29,49.12,49.12,0,0,1-6.65.51l-.65,8.72h21.2l.7-9.37h9.62L42,9.36Z"/><path class="cls-1" d="M25,10.32a12.58,12.58,0,0,0-4.6-1.65c.51.75,1,1.58,1.5,2.48C23,10.84,24,10.56,25,10.32Z"/><path class="cls-1" d="M33.15,18.39a10.33,10.33,0,0,1,.14,1.26,13,13,0,0,1-.12,2.86C35.86,20.54,36.42,18.84,33.15,18.39Z"/><path class="cls-1" d="M13.7,8.45h0l.07,0c0-1.72.33-2.83,1-3.31A2.1,2.1,0,0,1,17,5.21,7.21,7.21,0,0,1,19.16,7a13.39,13.39,0,0,1,8.72,2.67,32.44,32.44,0,0,1,4.5-.6L33.07,0H11.87l-.46,6.14C12,6.05,12.83,6.88,13.7,8.45Z"/><path class="cls-1" d="M17.63,29a56,56,0,0,0,7.27-2.23c-.16-1.15-.39-2.41-.67-3.74-.24-1.11-.52-2.21-.83-3.29-2.59.87-5.39,1.79-8,2.65.33,1,.69,2.12,1.09,3.3S17.26,28,17.63,29Z"/><path class="cls-1" d="M32.77,11.91c-.22-.65-1.43-.92-3.3-.84a13.69,13.69,0,0,1,2.1,2.79C32.51,13.07,32.93,12.4,32.77,11.91Z"/><path class="cls-1" d="M30,16.21a11.86,11.86,0,0,0-3.45-4.82c-1.23.2-2.59.48-4.05.84A46.21,46.21,0,0,1,24.88,18l1.29-.44Z"/><path class="cls-1" d="M148.13,12.37a2.31,2.31,0,1,1,2.31-2.29A2.29,2.29,0,0,1,148.13,12.37Zm0-4.4a2.1,2.1,0,1,0,2.09,2.11A2.09,2.09,0,0,0,148.14,8Zm0,.63a1.89,1.89,0,0,1,.68.07.7.7,0,0,1-.13,1.36c.23.11.35.21.41.61a2.79,2.79,0,0,0,.22.86h-.58a1.34,1.34,0,0,1-.12-.4l-.07-.45c-.08-.41-.28-.44-.65-.45h-.19v1.3h-.51V8.6Zm-.42,1.19h.43c.2,0,.62,0,.62-.4a.38.38,0,0,0-.21-.35A1.32,1.32,0,0,0,148,9h-.33Z"/></g></g></svg>