<svg xmlns="http://www.w3.org/2000/svg" viewBox="0 0 165.83 83.42"><defs><style>.cls-1{fill:#fff;}</style></defs><g id="Layer_2" data-name="Layer 2"><g id="Layer_1-2" data-name="Layer 1"><path class="cls-1" d="M21.58,13.18l-2.27-8.9-2.26,8.9H14.12L10.4.21h3.09l2.28,9.37L18.24.21H20.4l2.44,9.37L25.12.21h3.09l-3.69,13Z"/><path class="cls-1" d="M35.82,13.18V7.46c0-1.3-.68-1.71-1.73-1.71A2.72,2.72,0,0,0,32,6.84v6.34H29.46V.21H32V5a4.35,4.35,0,0,1,3.28-1.44,2.71,2.71,0,0,1,3.06,2.95v6.67Z"/><path class="cls-1" d="M46.38,13.18v-1a3.84,3.84,0,0,1-3,1.22,3.11,3.11,0,0,1-3.24-3.11,3,3,0,0,1,3.24-3,3.85,3.85,0,0,1,3,1.15V7.23c0-1-.82-1.57-2.06-1.57a4,4,0,0,0-2.71,1.11L40.64,5a6,6,0,0,1,4.1-1.48c2.16,0,4.12.85,4.12,3.55v6.07Zm0-2.25V9.76a2.48,2.48,0,0,0-2-.84c-1,0-1.77.53-1.77,1.42s.8,1.4,1.77,1.4A2.49,2.49,0,0,0,46.38,10.93Z"/><path class="cls-1" d="M51.8,10.83V6H50.25V3.79H51.8V1.22h2.47V3.79h1.91V6H54.27v4.22c0,.6.31,1.05.86,1.05a1.24,1.24,0,0,0,.85-.29l.53,1.88a3.05,3.05,0,0,1-2.06.6A2.34,2.34,0,0,1,51.8,10.83Z"/><path class="cls-1" d="M71.89,13.18,71.07,11H65.51l-.81,2.2H61.57l5-13H70l5,13ZM68.29,3l-2,5.58h4Z"/><path class="cls-1" d="M75,6.71A6.58,6.58,0,0,1,81.87,0a5.9,5.9,0,0,1,5.4,3.17L84.9,4.33a3.53,3.53,0,0,0-3-1.88,4,4,0,0,0-4.09,4.26A4,4,0,0,0,81.87,11a3.51,3.51,0,0,0,3-1.88l2.37,1.15a5.94,5.94,0,0,1-5.4,3.18A6.59,6.59,0,0,1,75,6.71Z"/><path class="cls-1" d="M91.92,13.18V2.64H88.13V.21H98.47V2.64H94.7V13.18Z"/><path class="cls-1" d="M100.24,8V.21H103v7.7a3,3,0,1,0,6.09,0V.21H112V8c0,3.21-1.91,5.42-5.85,5.42S100.24,11.2,100.24,8Z"/><path class="cls-1" d="M122.84,13.18,122,11h-5.56l-.81,2.2h-3.13l5-13H121l5,13ZM119.24,3l-2,5.58h4Z"/><path class="cls-1" d="M127.06,13.18V.21h2.78V10.75h5.48v2.43Z"/><path class="cls-1" d="M137.08,13.18V.21h2.78V10.75h5.48v2.43Z"/><path class="cls-1" d="M148.35,13.18V7.87l-5-7.66h3.15l3.2,5.19L152.94.21h3.13l-5,7.66v5.31Z"/><path class="cls-1" d="M26.86,36.52V31.05H20.74v5.47H18v-13h2.76v5.09h6.12V23.55h2.78v13Z"/><path class="cls-1" d="M37.77,36.52v-1a3.82,3.82,0,0,1-3,1.23,3.11,3.11,0,0,1-3.25-3.11,3,3,0,0,1,3.25-3,3.82,3.82,0,0,1,3,1.14V30.57c0-.95-.81-1.58-2.06-1.58A4,4,0,0,0,33,30.1l-1-1.73a6,6,0,0,1,4.1-1.48c2.16,0,4.12.86,4.12,3.56v6.07Zm0-2.26V33.09a2.48,2.48,0,0,0-2-.83c-1,0-1.77.52-1.77,1.42s.8,1.4,1.77,1.4A2.45,2.45,0,0,0,37.77,34.26Z"/><path class="cls-1" d="M45.16,35.31v4.78H42.69v-13h2.47v1.18a3.64,3.64,0,0,1,2.9-1.42c2.41,0,4.16,1.79,4.16,4.92s-1.75,4.94-4.16,4.94A3.63,3.63,0,0,1,45.16,35.31Zm4.51-3.5a2.45,2.45,0,0,0-2.39-2.72,2.74,2.74,0,0,0-2.12,1.07v3.3a2.76,2.76,0,0,0,2.12,1.09A2.45,2.45,0,0,0,49.67,31.81Z"/><path class="cls-1" d="M56.5,35.31v4.78H54v-13H56.5v1.18a3.64,3.64,0,0,1,2.9-1.42c2.41,0,4.16,1.79,4.16,4.92s-1.75,4.94-4.16,4.94A3.63,3.63,0,0,1,56.5,35.31ZM61,31.81a2.45,2.45,0,0,0-2.39-2.72,2.74,2.74,0,0,0-2.12,1.07v3.3a2.76,2.76,0,0,0,2.12,1.09A2.45,2.45,0,0,0,61,31.81Z"/><path class="cls-1" d="M64.77,31.81a4.79,4.79,0,0,1,4.85-4.92c2.82,0,4.71,2.1,4.71,5.15v.59h-7a2.53,2.53,0,0,0,2.7,2.1,3.89,3.89,0,0,0,2.49-.92l1.11,1.64a5.87,5.87,0,0,1-3.87,1.3A4.75,4.75,0,0,1,64.77,31.81Zm4.85-2.89a2.16,2.16,0,0,0-2.29,2H72A2.15,2.15,0,0,0,69.62,28.92Z"/><path class="cls-1" d="M82.46,36.52V30.84a1.52,1.52,0,0,0-1.73-1.75,2.74,2.74,0,0,0-2.14,1.09v6.34H76.12V27.13h2.47v1.2a4.39,4.39,0,0,1,3.29-1.44,2.74,2.74,0,0,1,3.07,3v6.63Z"/><path class="cls-1" d="M86.56,35.29l1.07-1.79a5.33,5.33,0,0,0,3.25,1.31c1.07,0,1.57-.41,1.57-1,0-1.53-5.55-.27-5.55-4,0-1.58,1.36-3,3.84-3a6,6,0,0,1,3.78,1.29l-1,1.75a4,4,0,0,0-2.78-1.09c-.89,0-1.47.39-1.47.91,0,1.38,5.58.21,5.58,4,0,1.73-1.48,3-4.09,3A6.31,6.31,0,0,1,86.56,35.29Z"/><path class="cls-1" d="M101.71,36.52v-13h2.76v13Z"/><path class="cls-1" d="M107.55,36.52V29.28H106V27.13h1.56v-.39a3,3,0,0,1,3.14-3.38,3.26,3.26,0,0,1,2.45.89l-.93,1.5a1.41,1.41,0,0,0-1-.37c-.7,0-1.17.44-1.17,1.36v.39h1.91v2.15H110v7.24Z"/><path class="cls-1" d="M122,36.52V31.21l-5-7.66h3.15l3.2,5.19,3.21-5.19h3.13l-5,7.66v5.31Z"/><path class="cls-1" d="M127.87,31.81a5,5,0,0,1,9.93,0,5,5,0,0,1-9.93,0Zm7.37,0a2.42,2.42,0,1,0-4.81,0,2.43,2.43,0,1,0,4.81,0Z"/><path class="cls-1" d="M146,36.52V35.33a4.47,4.47,0,0,1-3.31,1.42,2.69,2.69,0,0,1-3-3V27.13h2.47v5.69a1.51,1.51,0,0,0,1.73,1.73A2.76,2.76,0,0,0,146,33.48V27.13h2.47v9.39Z"/><path class="cls-1" d="M0,53.38a6.58,6.58,0,0,1,6.92-6.71,6.07,6.07,0,0,1,5.35,2.9L10,50.81a3.73,3.73,0,0,0-3.07-1.69,4.26,4.26,0,0,0,0,8.52,4.27,4.27,0,0,0,2.74-1V55.09H6.24V52.68h6.18v5a7.16,7.16,0,0,1-5.5,2.43A6.59,6.59,0,0,1,0,53.38Z"/><path class="cls-1" d="M14,55.15a4.79,4.79,0,0,1,4.86-4.92c2.82,0,4.71,2.1,4.71,5.15V56h-7a2.51,2.51,0,0,0,2.7,2.1,3.93,3.93,0,0,0,2.49-.91l1.11,1.63A5.84,5.84,0,0,1,19,60.08,4.75,4.75,0,0,1,14,55.15Zm4.86-2.9a2.16,2.16,0,0,0-2.29,2h4.62A2.15,2.15,0,0,0,18.82,52.25Z"/><path class="cls-1" d="M25.82,57.5V52.62H24.27V50.46h1.55V47.9h2.47v2.56H30.2v2.16H28.29v4.22c0,.6.31,1,.86,1A1.24,1.24,0,0,0,30,57.6l.53,1.88a3.05,3.05,0,0,1-2.06.6A2.34,2.34,0,0,1,25.82,57.5Z"/><path class="cls-1" d="M36.05,58l1.52-2.15a5.7,5.7,0,0,0,4.12,1.77C43.23,57.64,44,57,44,56.2c0-2.26-7.47-.68-7.47-5.56,0-2.16,1.87-4,4.92-4a7.18,7.18,0,0,1,5.05,1.81l-1.53,2.06a5.58,5.58,0,0,0-3.77-1.42c-1.17,0-1.83.51-1.83,1.28,0,2,7.44.66,7.44,5.5,0,2.38-1.71,4.16-5.19,4.16A7.49,7.49,0,0,1,36.05,58Z"/><path class="cls-1" d="M48.32,48a1.47,1.47,0,0,1,2.94,0,1.47,1.47,0,1,1-2.94,0Zm.24,11.88V50.46H51v9.39Z"/><path class="cls-1" d="M52.87,55.15a4.77,4.77,0,0,1,5-4.92,4.35,4.35,0,0,1,3.71,1.69L60,53.44a2.28,2.28,0,0,0-2-1,2.74,2.74,0,0,0,0,5.46,2.35,2.35,0,0,0,2-1l1.61,1.51a4.36,4.36,0,0,1-3.71,1.71A4.78,4.78,0,0,1,52.87,55.15Z"/><path class="cls-1" d="M69.26,59.85l-2.48-3.61-1.13,1.2v2.41H63.18v-13h2.47v7.75l3.56-4.18h3l-3.71,4.26,3.83,5.13Z"/><path class="cls-1" d="M78,55.15a5,5,0,1,1,5,4.93A4.75,4.75,0,0,1,78,55.15Zm7.37,0A2.43,2.43,0,1,0,83,57.89,2.47,2.47,0,0,0,85.37,55.15Z"/><path class="cls-1" d="M89.78,59.85V50.46h2.47v1.27a4.11,4.11,0,0,1,3-1.5v2.41a3,3,0,0,0-.68-.06,3.16,3.16,0,0,0-2.31,1.07v6.2Z"/><path class="cls-1" d="M110.72,59.85V54.39H104.6v5.46h-2.76v-13h2.76V52h6.12V46.89h2.78v13Z"/><path class="cls-1" d="M122.33,59.85V58.67a4.46,4.46,0,0,1-3.3,1.41,2.68,2.68,0,0,1-3-2.95V50.46h2.46v5.7a1.51,1.51,0,0,0,1.73,1.73,2.77,2.77,0,0,0,2.14-1.07V50.46h2.47v9.39Z"/><path class="cls-1" d="M127.25,59.85V50.46h2.47v1.27a4.11,4.11,0,0,1,3-1.5v2.41a3.1,3.1,0,0,0-.68-.06,3.17,3.17,0,0,0-2.32,1.07v6.2Z"/><path class="cls-1" d="M134.76,57.5V52.62h-1.55V50.46h1.55V47.9h2.47v2.56h1.9v2.16h-1.9v4.22c0,.6.31,1,.85,1a1.29,1.29,0,0,0,.86-.29l.52,1.88a3,3,0,0,1-2.06.6A2.33,2.33,0,0,1,134.76,57.5Z"/><path class="cls-1" d="M145.22,55.15a5,5,0,1,1,5,4.93A4.76,4.76,0,0,1,145.22,55.15Zm7.37,0a2.42,2.42,0,1,0-2.41,2.74A2.47,2.47,0,0,0,152.59,55.15Z"/><path class="cls-1" d="M163.34,59.85V54.18c0-1.31-.68-1.75-1.73-1.75a2.73,2.73,0,0,0-2.13,1.08v6.34H157V50.46h2.47v1.21a4.37,4.37,0,0,1,3.28-1.44,2.74,2.74,0,0,1,3.07,3v6.63Z"/><path class="cls-1" d="M50,83.19v-1a3.85,3.85,0,0,1-3,1.22,3.11,3.11,0,0,1-3.25-3.11,3,3,0,0,1,3.25-3,3.85,3.85,0,0,1,3,1.14V77.24c0-.95-.81-1.57-2.06-1.57a3.94,3.94,0,0,0-2.7,1.1l-1-1.73a6.06,6.06,0,0,1,4.1-1.48c2.16,0,4.12.86,4.12,3.56v6.07Zm0-2.26V79.77a2.45,2.45,0,0,0-2-.84c-1,0-1.77.53-1.77,1.42s.8,1.4,1.77,1.4A2.43,2.43,0,0,0,50,80.93Z"/><path class="cls-1" d="M59.33,76.71A6.58,6.58,0,0,1,66.25,70a5.87,5.87,0,0,1,5.4,3.17l-2.37,1.16a3.49,3.49,0,0,0-3-1.88,4.26,4.26,0,0,0,0,8.51,3.49,3.49,0,0,0,3-1.88l2.37,1.14a5.92,5.92,0,0,1-5.4,3.19A6.59,6.59,0,0,1,59.33,76.71Z"/><path class="cls-1" d="M73.25,83.19V73.8h2.47v1.26a4.15,4.15,0,0,1,3-1.5V76a3.18,3.18,0,0,0-3,1v6.2Z"/><path class="cls-1" d="M86.59,83.19V82a4.46,4.46,0,0,1-3.3,1.42,2.69,2.69,0,0,1-3-3V73.8h2.47v5.69c0,1.31.68,1.73,1.73,1.73a2.78,2.78,0,0,0,2.14-1.06V73.8h2.47v9.39Z"/><path class="cls-1" d="M91.28,71.31a1.47,1.47,0,0,1,2.93,0,1.47,1.47,0,1,1-2.93,0Zm.23,11.88V73.8H94v9.39Z"/><path class="cls-1" d="M95.62,82l1.07-1.79a5.27,5.27,0,0,0,3.24,1.31c1.07,0,1.58-.41,1.58-1,0-1.54-5.56-.28-5.56-4,0-1.57,1.36-3,3.85-3a6,6,0,0,1,3.77,1.29l-1,1.75a4,4,0,0,0-2.78-1.09c-.9,0-1.48.39-1.48.91,0,1.38,5.58.22,5.58,4,0,1.73-1.48,3-4.08,3A6.28,6.28,0,0,1,95.62,82Z"/><path class="cls-1" d="M105.11,78.48A4.79,4.79,0,0,1,110,73.56c2.81,0,4.7,2.11,4.7,5.16v.58h-7a2.52,2.52,0,0,0,2.7,2.1,3.93,3.93,0,0,0,2.49-.91L114,82.12a5.87,5.87,0,0,1-3.87,1.3A4.75,4.75,0,0,1,105.11,78.48ZM110,75.59a2.17,2.17,0,0,0-2.3,2h4.63A2.15,2.15,0,0,0,110,75.59Z"/><path class="cls-1" d="M117.22,77.49c0-2.29,2.86-2.56,2.86-3.91,0-.6-.47-1.1-1.54-1.1a3,3,0,0,0-2.39,1.2l-1.57-1.77A5.49,5.49,0,0,1,118.83,70c2.51,0,4,1.26,4,3.07,0,2.84-3.25,3.05-3.25,4.68a1.15,1.15,0,0,0,.37.82l-2.14.62A2.51,2.51,0,0,1,117.22,77.49Zm0,4.34a1.58,1.58,0,1,1,1.57,1.57A1.59,1.59,0,0,1,117.22,81.83Z"/></g></g></svg>