<svg xmlns="http://www.w3.org/2000/svg" viewBox="0 0 152.95 87.59"><defs><style>.cls-1{fill:#fff;}</style></defs><g id="Layer_2" data-name="Layer 2"><g id="Layer_1-2" data-name="Layer 1"><path class="cls-1" d="M11.74,13.84,9.35,4.49,7,13.84H3.9L0,.22H3.25l2.38,9.85L8.23.22h2.26l2.58,9.85L15.46.22H18.7L14.82,13.84Z"/><path class="cls-1" d="M26.69,13.84v-6C26.69,6.47,26,6,24.87,6a2.84,2.84,0,0,0-2.25,1.15v6.65H20V.22h2.61v5a4.58,4.58,0,0,1,3.45-1.51c2.17,0,3.21,1.18,3.21,3.1v7Z"/><path class="cls-1" d="M37.77,13.84v-1a4,4,0,0,1-3.12,1.29,3.27,3.27,0,0,1-3.41-3.27,3.12,3.12,0,0,1,3.41-3.18,4,4,0,0,1,3.12,1.2V7.59c0-1-.85-1.65-2.16-1.65A4.18,4.18,0,0,0,32.77,7.1l-1-1.81a6.38,6.38,0,0,1,4.31-1.55c2.26,0,4.33.89,4.33,3.73v6.37Zm0-2.37V10.25a2.61,2.61,0,0,0-2.08-.88c-1,0-1.86.55-1.86,1.49s.84,1.47,1.86,1.47A2.56,2.56,0,0,0,37.77,11.47Z"/><path class="cls-1" d="M43.47,11.37V6.25H41.84V4h1.63V1.29h2.59V4h2V6.25h-2v4.43c0,.63.33,1.1.9,1.1a1.27,1.27,0,0,0,.9-.31l.55,2a3.18,3.18,0,0,1-2.16.64A2.46,2.46,0,0,1,43.47,11.37Z"/><path class="cls-1" d="M64.56,13.84l-.86-2.3H57.86L57,13.84H53.72L59,.22H62.6l5.25,13.62ZM60.78,3.12,58.66,9h4.25Z"/><path class="cls-1" d="M67.77,7A6.91,6.91,0,0,1,75,0a6.17,6.17,0,0,1,5.67,3.33L78.22,4.55a3.69,3.69,0,0,0-3.18-2A4.24,4.24,0,0,0,70.75,7,4.24,4.24,0,0,0,75,11.51a3.67,3.67,0,0,0,3.18-2l2.49,1.21A6.24,6.24,0,0,1,75,14.09,6.92,6.92,0,0,1,67.77,7Z"/><path class="cls-1" d="M85.59,13.84V2.78h-4V.22H92.47V2.78h-4V13.84Z"/><path class="cls-1" d="M94.33,8.39V.22h2.94V8.31a3.2,3.2,0,1,0,6.39,0V.22h3V8.39c0,3.37-2,5.7-6.14,5.7S94.33,11.76,94.33,8.39Z"/><path class="cls-1" d="M118.06,13.84l-.86-2.3h-5.84l-.86,2.3h-3.29L112.46.22h3.64l5.24,13.62ZM114.28,3.12,112.16,9h4.24Z"/><path class="cls-1" d="M122.49,13.84V.22h2.92V11.29h5.75v2.55Z"/><path class="cls-1" d="M133,13.84V.22h2.92V11.29h5.76v2.55Z"/><path class="cls-1" d="M144.84,13.84V8.27l-5.22-8h3.31l3.36,5.46L149.66.22H153l-5.21,8v5.57Z"/><path class="cls-1" d="M10.66,38.34V32.61H4.23v5.73H1.33V24.73h2.9v5.35h6.43V24.73h2.92V38.34Z"/><path class="cls-1" d="M22.11,38.34v-1A4,4,0,0,1,19,38.59a3.27,3.27,0,0,1-3.41-3.27A3.13,3.13,0,0,1,19,32.14a4,4,0,0,1,3.12,1.2V32.1c0-1-.86-1.66-2.16-1.66a4.14,4.14,0,0,0-2.84,1.17l-1-1.82a6.38,6.38,0,0,1,4.31-1.55c2.26,0,4.33.9,4.33,3.73v6.37Zm0-2.36V34.75A2.61,2.61,0,0,0,20,33.87c-1,0-1.86.55-1.86,1.49S19,36.83,20,36.83A2.59,2.59,0,0,0,22.11,36Z"/><path class="cls-1" d="M29.87,37.08v5H27.28V28.48h2.59v1.25a3.82,3.82,0,0,1,3-1.49c2.53,0,4.37,1.88,4.37,5.16s-1.84,5.19-4.37,5.19A3.8,3.8,0,0,1,29.87,37.08Zm4.74-3.68a2.57,2.57,0,0,0-2.51-2.85,2.86,2.86,0,0,0-2.23,1.12v3.47a2.94,2.94,0,0,0,2.23,1.14A2.58,2.58,0,0,0,34.61,33.4Z"/><path class="cls-1" d="M41.77,37.08v5H39.18V28.48h2.59v1.25a3.82,3.82,0,0,1,3-1.49c2.53,0,4.37,1.88,4.37,5.16s-1.84,5.19-4.37,5.19A3.81,3.81,0,0,1,41.77,37.08Zm4.74-3.68A2.57,2.57,0,0,0,44,30.55a2.86,2.86,0,0,0-2.23,1.12v3.47A2.94,2.94,0,0,0,44,36.28,2.58,2.58,0,0,0,46.51,33.4Z"/><path class="cls-1" d="M50.45,33.4a5,5,0,0,1,5.11-5.16c3,0,4.94,2.2,4.94,5.41v.61H53.17A2.64,2.64,0,0,0,56,36.47a4.14,4.14,0,0,0,2.61-1l1.16,1.71a6.13,6.13,0,0,1-4.06,1.37A5,5,0,0,1,50.45,33.4Zm5.11-3a2.27,2.27,0,0,0-2.41,2.1H58A2.27,2.27,0,0,0,55.56,30.36Z"/><path class="cls-1" d="M69,38.34v-6c0-1.37-.71-1.83-1.81-1.83A2.88,2.88,0,0,0,65,31.69v6.65H62.38V28.48H65v1.27a4.59,4.59,0,0,1,3.45-1.51,2.88,2.88,0,0,1,3.23,3.14v7Z"/><path class="cls-1" d="M73.34,37.06l1.12-1.88a5.64,5.64,0,0,0,3.41,1.37c1.13,0,1.66-.43,1.66-1,0-1.62-5.84-.29-5.84-4.17,0-1.65,1.43-3.1,4-3.1a6.26,6.26,0,0,1,4,1.35l-1,1.83a4.25,4.25,0,0,0-2.92-1.14c-.94,0-1.55.41-1.55,1,0,1.45,5.86.22,5.86,4.21,0,1.81-1.55,3.14-4.29,3.14A6.64,6.64,0,0,1,73.34,37.06Z"/><path class="cls-1" d="M89.25,38.34V24.73h2.9V38.34Z"/><path class="cls-1" d="M95.37,38.34V30.75H93.74V28.48h1.63v-.41c0-2.22,1.33-3.55,3.31-3.55a3.44,3.44,0,0,1,2.57.94l-1,1.57a1.52,1.52,0,0,0-1.08-.38c-.74,0-1.23.47-1.23,1.42v.41h2v2.27H98v7.59Z"/><path class="cls-1" d="M110.56,38.34V32.77l-5.22-8h3.3L112,30.18l3.37-5.45h3.29l-5.21,8v5.57Z"/><path class="cls-1" d="M116.71,33.4a5.22,5.22,0,0,1,10.43,0,5.22,5.22,0,0,1-10.43,0Zm7.74,0a2.54,2.54,0,1,0-5,0,2.55,2.55,0,1,0,5,0Z"/><path class="cls-1" d="M135.74,38.34V37.1a4.72,4.72,0,0,1-3.47,1.49c-2.17,0-3.19-1.18-3.19-3.1v-7h2.59v6a1.59,1.59,0,0,0,1.82,1.81,2.92,2.92,0,0,0,2.25-1.12V28.48h2.59v9.86Z"/><path class="cls-1" d="M.67,56.05a6.92,6.92,0,0,1,7.27-7,6.35,6.35,0,0,1,5.62,3l-2.39,1.3a3.92,3.92,0,0,0-3.23-1.77,4.47,4.47,0,0,0,0,8.94,4.52,4.52,0,0,0,2.88-1V57.84H7.23V55.31h6.49v5.23a7.54,7.54,0,0,1-5.78,2.55A6.93,6.93,0,0,1,.67,56.05Z"/><path class="cls-1" d="M15.33,57.9a5,5,0,0,1,5.11-5.16c3,0,4.94,2.2,4.94,5.41v.61H18.05A2.64,2.64,0,0,0,20.89,61a4.14,4.14,0,0,0,2.61-1l1.16,1.71a6.13,6.13,0,0,1-4.06,1.37A5,5,0,0,1,15.33,57.9Zm5.11-3A2.27,2.27,0,0,0,18,57h4.86A2.27,2.27,0,0,0,20.44,54.86Z"/><path class="cls-1" d="M27.79,60.38V55.25H26.15V53h1.64V50.29h2.59V53h2v2.27h-2v4.43c0,.63.33,1.1.9,1.1a1.34,1.34,0,0,0,.9-.3l.55,2a3.25,3.25,0,0,1-2.17.63A2.45,2.45,0,0,1,27.79,60.38Z"/><path class="cls-1" d="M38.53,60.93l1.59-2.27a6,6,0,0,0,4.33,1.86c1.61,0,2.37-.72,2.37-1.51,0-2.37-7.84-.72-7.84-5.84,0-2.27,2-4.15,5.16-4.15a7.6,7.6,0,0,1,5.31,1.9l-1.61,2.17a5.84,5.84,0,0,0-4-1.49c-1.23,0-1.92.53-1.92,1.34,0,2.15,7.82.7,7.82,5.78,0,2.49-1.8,4.37-5.45,4.37A7.87,7.87,0,0,1,38.53,60.93Z"/><path class="cls-1" d="M51.41,50.37a1.54,1.54,0,1,1,1.53,1.55A1.55,1.55,0,0,1,51.41,50.37Zm.25,12.48V53h2.59v9.87Z"/><path class="cls-1" d="M56.19,57.9a5,5,0,0,1,5.23-5.16,4.6,4.6,0,0,1,3.9,1.78l-1.7,1.59a2.37,2.37,0,0,0-2.08-1.06,2.87,2.87,0,0,0,0,5.73,2.43,2.43,0,0,0,2.08-1.08l1.7,1.59a4.61,4.61,0,0,1-3.9,1.8A5,5,0,0,1,56.19,57.9Z"/><path class="cls-1" d="M73.4,62.85l-2.61-3.8L69.6,60.31v2.54H67V49.23H69.6v8.14L73.34,53h3.18l-3.89,4.48,4,5.39Z"/><path class="cls-1" d="M82.57,57.9a5.22,5.22,0,1,1,5.21,5.19A5,5,0,0,1,82.57,57.9Zm7.74,0a2.55,2.55,0,1,0-2.53,2.88A2.59,2.59,0,0,0,90.31,57.9Z"/><path class="cls-1" d="M94.94,62.85V53h2.6v1.33a4.29,4.29,0,0,1,3.14-1.57v2.53a3.39,3.39,0,0,0-.72-.06,3.29,3.29,0,0,0-2.42,1.12v6.52Z"/><path class="cls-1" d="M116.93,62.85V57.11H110.5v5.74h-2.9V49.23h2.9v5.35h6.43V49.23h2.92V62.85Z"/><path class="cls-1" d="M129.12,62.85V61.6a4.67,4.67,0,0,1-3.47,1.49c-2.16,0-3.18-1.18-3.18-3.1V53h2.59v6c0,1.36.71,1.81,1.82,1.81a2.9,2.9,0,0,0,2.24-1.12V53h2.59v9.87Z"/><path class="cls-1" d="M134.29,62.85V53h2.59v1.33A4.32,4.32,0,0,1,140,52.74v2.53a3.36,3.36,0,0,0-3.14,1.06v6.52Z"/><path class="cls-1" d="M142.17,60.38V55.25h-1.63V53h1.63V50.29h2.59V53h2v2.27h-2v4.43c0,.63.33,1.1.9,1.1a1.32,1.32,0,0,0,.9-.3l.55,2a3.24,3.24,0,0,1-2.16.63A2.46,2.46,0,0,1,142.17,60.38Z"/><path class="cls-1" d="M.63,82.41a5,5,0,0,1,5.21-5.17,5.18,5.18,0,1,1,0,10.35A5,5,0,0,1,.63,82.41Zm7.74,0a2.59,2.59,0,0,0-2.53-2.86,2.9,2.9,0,0,0,0,5.74A2.6,2.6,0,0,0,8.37,82.41Z"/><path class="cls-1" d="M19.66,87.35v-6c0-1.37-.71-1.84-1.82-1.84a2.88,2.88,0,0,0-2.24,1.14v6.66H13V77.49H15.6v1.26a4.63,4.63,0,0,1,3.45-1.51,2.88,2.88,0,0,1,3.22,3.15v7Z"/><path class="cls-1" d="M36,87.35v-1a4.06,4.06,0,0,1-3.13,1.28,3.27,3.27,0,0,1-3.41-3.26,3.13,3.13,0,0,1,3.41-3.19A4,4,0,0,1,36,82.35V81.1c0-1-.86-1.65-2.17-1.65A4.13,4.13,0,0,0,31,80.61l-1-1.82a6.39,6.39,0,0,1,4.31-1.55c2.27,0,4.33.9,4.33,3.74v6.37ZM36,85V83.75a2.62,2.62,0,0,0-2.09-.87c-1,0-1.85.55-1.85,1.49s.83,1.47,1.85,1.47A2.61,2.61,0,0,0,36,85Z"/><path class="cls-1" d="M45.82,80.55a6.91,6.91,0,0,1,7.27-7,6.18,6.18,0,0,1,5.67,3.32l-2.49,1.23a3.69,3.69,0,0,0-3.18-2,4.47,4.47,0,0,0,0,8.94,3.69,3.69,0,0,0,3.18-2l2.49,1.2a6.22,6.22,0,0,1-5.67,3.35A6.92,6.92,0,0,1,45.82,80.55Z"/><path class="cls-1" d="M60.44,87.35V77.49H63v1.32a4.34,4.34,0,0,1,3.14-1.57v2.53A3.36,3.36,0,0,0,63,80.83v6.52Z"/><path class="cls-1" d="M74.44,87.35V86.1A4.67,4.67,0,0,1,71,87.59c-2.16,0-3.18-1.18-3.18-3.1v-7h2.59v6a1.59,1.59,0,0,0,1.82,1.82,2.9,2.9,0,0,0,2.24-1.13V77.49H77v9.86Z"/><path class="cls-1" d="M79.36,74.87a1.55,1.55,0,1,1,1.54,1.55A1.54,1.54,0,0,1,79.36,74.87Zm.25,12.48V77.49H82.2v9.86Z"/><path class="cls-1" d="M83.92,86.06,85,84.18a5.53,5.53,0,0,0,3.41,1.37c1.12,0,1.65-.43,1.65-1,0-1.61-5.84-.29-5.84-4.17,0-1.65,1.43-3.1,4-3.1a6.26,6.26,0,0,1,4,1.35l-1,1.84a4.25,4.25,0,0,0-2.92-1.15c-.94,0-1.56.41-1.56,1,0,1.45,5.86.23,5.86,4.21,0,1.82-1.55,3.14-4.28,3.14A6.62,6.62,0,0,1,83.92,86.06Z"/><path class="cls-1" d="M93.88,82.41A5,5,0,0,1,99,77.24c3,0,5,2.21,5,5.41v.61H96.6a2.63,2.63,0,0,0,2.83,2.21,4.17,4.17,0,0,0,2.62-1l1.16,1.71a6.13,6.13,0,0,1-4.06,1.37A5,5,0,0,1,93.88,82.41Zm5.1-3a2.27,2.27,0,0,0-2.4,2.11h4.86A2.28,2.28,0,0,0,99,79.36Z"/><path class="cls-1" d="M106.6,81.37c0-2.41,3-2.7,3-4.11,0-.63-.49-1.16-1.61-1.16a3.21,3.21,0,0,0-2.51,1.26l-1.66-1.85a5.78,5.78,0,0,1,4.48-2c2.63,0,4.24,1.32,4.24,3.22,0,3-3.41,3.21-3.41,4.92a1.18,1.18,0,0,0,.39.86l-2.25.65A2.69,2.69,0,0,1,106.6,81.37Zm0,4.55a1.66,1.66,0,1,1,1.65,1.65A1.68,1.68,0,0,1,106.6,85.92Z"/></g></g></svg>